G04 Layer_Color=65535*
%FSLAX25Y25*%
%MOIN*%
G70*
G01*
G75*
%ADD36C,0.01000*%
%ADD48C,0.00394*%
%ADD49C,0.02362*%
%ADD50C,0.00984*%
%ADD51C,0.00787*%
D36*
X162500Y8957D02*
X172343D01*
X162500Y48327D02*
X172343D01*
X162500Y8957D02*
Y48327D01*
X172500Y8957D02*
Y48327D01*
X47406Y60964D02*
Y64964D01*
X225658Y75736D02*
X229658D01*
X92716Y48327D02*
X102559D01*
X92716Y8957D02*
X102559D01*
Y48327D01*
X92559Y8957D02*
Y48327D01*
X209528Y16886D02*
Y40508D01*
X185906Y16886D02*
Y40508D01*
X209528D01*
X185906Y16886D02*
X209528D01*
X86614Y2756D02*
Y53839D01*
X216535D01*
Y2756D02*
Y53839D01*
X257874Y39370D02*
X312205D01*
X257874D02*
Y157480D01*
X312205D01*
X125984Y171260D02*
X192913D01*
Y171850D02*
Y194095D01*
X125984Y171260D02*
Y194095D01*
X53394Y47213D02*
Y51213D01*
X6102Y116142D02*
X53839D01*
X6102Y80709D02*
X30807D01*
X53839Y106201D02*
Y116142D01*
Y80709D02*
Y90650D01*
X47736Y80709D02*
X53839D01*
D48*
X59068Y60110D02*
G03*
X59068Y60110I-197J0D01*
G01*
X225000Y64272D02*
G03*
X225000Y64272I-197J0D01*
G01*
X42126Y52067D02*
G03*
X42126Y52067I-197J0D01*
G01*
X129068Y13716D02*
X128881Y13903D01*
X128599Y13997D01*
X128225D01*
X127943Y13903D01*
X127756Y13716D01*
Y13528D01*
X127850Y13341D01*
X127943Y13247D01*
X128131Y13153D01*
X128693Y12966D01*
X128881Y12872D01*
X128974Y12778D01*
X129068Y12591D01*
Y12310D01*
X128881Y12122D01*
X128599Y12029D01*
X128225D01*
X127943Y12122D01*
X127756Y12310D01*
X130914Y13528D02*
X130821Y13716D01*
X130633Y13903D01*
X130446Y13997D01*
X130071D01*
X129883Y13903D01*
X129696Y13716D01*
X129602Y13528D01*
X129508Y13247D01*
Y12778D01*
X129602Y12497D01*
X129696Y12310D01*
X129883Y12122D01*
X130071Y12029D01*
X130446D01*
X130633Y12122D01*
X130821Y12310D01*
X130914Y12497D01*
X133013Y13341D02*
X133388Y12029D01*
X133763Y13341D02*
X133388Y12029D01*
X133763Y13341D02*
X134138Y12029D01*
X134513Y13341D02*
X134138Y12029D01*
X135160Y13997D02*
X135253Y13903D01*
X135347Y13997D01*
X135253Y14091D01*
X135160Y13997D01*
X135253Y13341D02*
Y12029D01*
X136819Y13997D02*
Y12029D01*
Y13060D02*
X136631Y13247D01*
X136444Y13341D01*
X136162D01*
X135975Y13247D01*
X135788Y13060D01*
X135694Y12778D01*
Y12591D01*
X135788Y12310D01*
X135975Y12122D01*
X136162Y12029D01*
X136444D01*
X136631Y12122D01*
X136819Y12310D01*
X137624Y13997D02*
Y12404D01*
X137718Y12122D01*
X137906Y12029D01*
X138093D01*
X137343Y13341D02*
X137999D01*
X138374Y13997D02*
Y12029D01*
Y12966D02*
X138655Y13247D01*
X138843Y13341D01*
X139124D01*
X139311Y13247D01*
X139405Y12966D01*
Y12029D01*
X142592Y13060D02*
X142404Y13247D01*
X142217Y13341D01*
X141936D01*
X141748Y13247D01*
X141561Y13060D01*
X141467Y12778D01*
Y12591D01*
X141561Y12310D01*
X141748Y12122D01*
X141936Y12029D01*
X142217D01*
X142404Y12122D01*
X142592Y12310D01*
X143013Y13341D02*
Y12029D01*
Y12966D02*
X143294Y13247D01*
X143482Y13341D01*
X143763D01*
X143950Y13247D01*
X144044Y12966D01*
Y12029D01*
X145309Y13997D02*
X145122D01*
X144934Y13903D01*
X144841Y13622D01*
Y12029D01*
X144560Y13341D02*
X145216D01*
X146715D02*
Y11841D01*
X146621Y11560D01*
X146528Y11467D01*
X146340Y11373D01*
X146059D01*
X145872Y11467D01*
X146715Y13060D02*
X146528Y13247D01*
X146340Y13341D01*
X146059D01*
X145872Y13247D01*
X145684Y13060D01*
X145590Y12778D01*
Y12591D01*
X145684Y12310D01*
X145872Y12122D01*
X146059Y12029D01*
X146340D01*
X146528Y12122D01*
X146715Y12310D01*
X127756Y9847D02*
Y7972D01*
X127850Y9847D02*
Y7972D01*
X127756Y9847D02*
X128225D01*
X127756Y7972D02*
X128225D01*
X128478Y9659D02*
X128665Y9753D01*
X128946Y10034D01*
Y8066D01*
X130483Y10034D02*
X130202Y9940D01*
X130015Y9659D01*
X129921Y9191D01*
Y8910D01*
X130015Y8441D01*
X130202Y8160D01*
X130483Y8066D01*
X130670D01*
X130952Y8160D01*
X131139Y8441D01*
X131233Y8910D01*
Y9191D01*
X131139Y9659D01*
X130952Y9940D01*
X130670Y10034D01*
X130483D01*
X132236D02*
X131955Y9940D01*
X131767Y9659D01*
X131673Y9191D01*
Y8910D01*
X131767Y8441D01*
X131955Y8160D01*
X132236Y8066D01*
X132423D01*
X132704Y8160D01*
X132892Y8441D01*
X132985Y8910D01*
Y9191D01*
X132892Y9659D01*
X132704Y9940D01*
X132423Y10034D01*
X132236D01*
X133426Y9378D02*
Y8441D01*
X133520Y8160D01*
X133707Y8066D01*
X133988D01*
X134176Y8160D01*
X134457Y8441D01*
Y9378D02*
Y8066D01*
X136003Y9097D02*
X135909Y9285D01*
X135628Y9378D01*
X135347D01*
X135066Y9285D01*
X134972Y9097D01*
X135066Y8910D01*
X135253Y8816D01*
X135722Y8722D01*
X135909Y8629D01*
X136003Y8441D01*
Y8347D01*
X135909Y8160D01*
X135628Y8066D01*
X135347D01*
X135066Y8160D01*
X134972Y8347D01*
X136416Y8910D02*
X138102D01*
X138683Y9659D02*
X138871Y9753D01*
X139152Y10034D01*
Y8066D01*
X140689Y10034D02*
X140408Y9940D01*
X140220Y9659D01*
X140127Y9191D01*
Y8910D01*
X140220Y8441D01*
X140408Y8160D01*
X140689Y8066D01*
X140876D01*
X141158Y8160D01*
X141345Y8441D01*
X141439Y8910D01*
Y9191D01*
X141345Y9659D01*
X141158Y9940D01*
X140876Y10034D01*
X140689D01*
X142441D02*
X142160Y9940D01*
X141973Y9659D01*
X141879Y9191D01*
Y8910D01*
X141973Y8441D01*
X142160Y8160D01*
X142441Y8066D01*
X142629D01*
X142910Y8160D01*
X143098Y8441D01*
X143191Y8910D01*
Y9191D01*
X143098Y9659D01*
X142910Y9940D01*
X142629Y10034D01*
X142441D01*
X143632Y9378D02*
Y8066D01*
Y9003D02*
X143913Y9285D01*
X144100Y9378D01*
X144381D01*
X144569Y9285D01*
X144663Y9003D01*
Y8066D01*
Y9003D02*
X144944Y9285D01*
X145131Y9378D01*
X145412D01*
X145600Y9285D01*
X145694Y9003D01*
Y8066D01*
X147343Y9097D02*
X147249Y9285D01*
X146968Y9378D01*
X146687D01*
X146406Y9285D01*
X146312Y9097D01*
X146406Y8910D01*
X146593Y8816D01*
X147062Y8722D01*
X147249Y8629D01*
X147343Y8441D01*
Y8347D01*
X147249Y8160D01*
X146968Y8066D01*
X146687D01*
X146406Y8160D01*
X146312Y8347D01*
X148130Y9847D02*
Y7972D01*
X148224Y9847D02*
Y7972D01*
X147755Y9847D02*
X148224D01*
X147755Y7972D02*
X148224D01*
X252231Y144000D02*
Y145968D01*
X253215D01*
X253543Y145640D01*
Y144984D01*
X253215Y144656D01*
X252231D01*
X254199Y144000D02*
X254855D01*
X254527D01*
Y145968D01*
X254199Y145640D01*
X41100Y71561D02*
Y69593D01*
X42084D01*
X42412Y69921D01*
Y71232D01*
X42084Y71561D01*
X41100D01*
X44052Y69593D02*
Y71561D01*
X43068Y70577D01*
X44380D01*
X222933Y87303D02*
Y89271D01*
X223917D01*
X224245Y88943D01*
Y88287D01*
X223917Y87959D01*
X222933D01*
X223589D02*
X224245Y87303D01*
X224901Y87631D02*
X225229Y87303D01*
X225885D01*
X226213Y87631D01*
Y88943D01*
X225885Y89271D01*
X225229D01*
X224901Y88943D01*
Y88615D01*
X225229Y88287D01*
X226213D01*
X150179Y24312D02*
X149851Y23984D01*
Y23328D01*
X150179Y23000D01*
X150507D01*
X150835Y23328D01*
Y23984D01*
X151163Y24312D01*
X151491D01*
X151819Y23984D01*
Y23328D01*
X151491Y23000D01*
X151819Y26280D02*
Y24968D01*
X150507Y26280D01*
X150179D01*
X149851Y25952D01*
Y25296D01*
X150179Y24968D01*
X97473Y51837D02*
X97145Y52165D01*
X96489D01*
X96161Y51837D01*
Y51509D01*
X96489Y51181D01*
X97145D01*
X97473Y50853D01*
Y50525D01*
X97145Y50197D01*
X96489D01*
X96161Y50525D01*
X98129Y50197D02*
X98785D01*
X98457D01*
Y52165D01*
X98129Y51837D01*
X194783Y110826D02*
Y109186D01*
X195111Y108858D01*
X195767D01*
X196095Y109186D01*
Y110826D01*
X198063D02*
X196751D01*
Y109842D01*
X197407Y110170D01*
X197735D01*
X198063Y109842D01*
Y109186D01*
X197735Y108858D01*
X197079D01*
X196751Y109186D01*
X150394Y164665D02*
Y163025D01*
X150722Y162697D01*
X151378D01*
X151706Y163025D01*
Y164665D01*
X153346Y162697D02*
Y164665D01*
X152362Y163681D01*
X153674D01*
X93799Y161810D02*
Y160170D01*
X94127Y159843D01*
X94783D01*
X95111Y160170D01*
Y161810D01*
X95767Y161482D02*
X96095Y161810D01*
X96751D01*
X97079Y161482D01*
Y161154D01*
X96751Y160826D01*
X96423D01*
X96751D01*
X97079Y160498D01*
Y160170D01*
X96751Y159843D01*
X96095D01*
X95767Y160170D01*
X111713Y112302D02*
Y110663D01*
X112041Y110335D01*
X112697D01*
X113024Y110663D01*
Y112302D01*
X114992Y110335D02*
X113681D01*
X114992Y111647D01*
Y111975D01*
X114664Y112302D01*
X114008D01*
X113681Y111975D01*
X197572Y47211D02*
X197244Y47539D01*
X196588D01*
X196260Y47211D01*
Y46883D01*
X196588Y46555D01*
X197244D01*
X197572Y46227D01*
Y45899D01*
X197244Y45571D01*
X196588D01*
X196260Y45899D01*
X198228Y47211D02*
X198556Y47539D01*
X199212D01*
X199540Y47211D01*
Y46883D01*
X199212Y46555D01*
X198884D01*
X199212D01*
X199540Y46227D01*
Y45899D01*
X199212Y45571D01*
X198556D01*
X198228Y45899D01*
X244291Y55118D02*
Y57086D01*
X245275D01*
X245603Y56758D01*
Y56102D01*
X245275Y55774D01*
X244291D01*
X244947D02*
X245603Y55118D01*
X246259D02*
X246915D01*
X246587D01*
Y57086D01*
X246259Y56758D01*
X249211Y55118D02*
X247899D01*
X249211Y56430D01*
Y56758D01*
X248883Y57086D01*
X248227D01*
X247899Y56758D01*
X226378Y30118D02*
Y32086D01*
X227362D01*
X227690Y31758D01*
Y31102D01*
X227362Y30774D01*
X226378D01*
X227034D02*
X227690Y30118D01*
X228346D02*
X229002D01*
X228674D01*
Y32086D01*
X228346Y31758D01*
X229986Y30118D02*
X230642D01*
X230314D01*
Y32086D01*
X229986Y31758D01*
X244335Y45161D02*
Y47129D01*
X245319D01*
X245647Y46801D01*
Y46145D01*
X245319Y45817D01*
X244335D01*
X244991D02*
X245647Y45161D01*
X246303D02*
X246958D01*
X246631D01*
Y47129D01*
X246303Y46801D01*
X247942D02*
X248270Y47129D01*
X248926D01*
X249254Y46801D01*
Y45489D01*
X248926Y45161D01*
X248270D01*
X247942Y45489D01*
Y46801D01*
X136508Y40803D02*
Y42771D01*
X137492D01*
X137820Y42443D01*
Y41787D01*
X137492Y41459D01*
X136508D01*
X137164D02*
X137820Y40803D01*
X138476Y42443D02*
X138804Y42771D01*
X139460D01*
X139788Y42443D01*
Y42115D01*
X139460Y41787D01*
X139788Y41459D01*
Y41131D01*
X139460Y40803D01*
X138804D01*
X138476Y41131D01*
Y41459D01*
X138804Y41787D01*
X138476Y42115D01*
Y42443D01*
X138804Y41787D02*
X139460D01*
X148524Y87894D02*
Y89862D01*
X149507D01*
X149836Y89534D01*
Y88878D01*
X149507Y88550D01*
X148524D01*
X149180D02*
X149836Y87894D01*
X150491Y89862D02*
X151803D01*
Y89534D01*
X150491Y88222D01*
Y87894D01*
X180217Y146654D02*
Y148621D01*
X181201D01*
X181528Y148293D01*
Y147637D01*
X181201Y147310D01*
X180217D01*
X180872D02*
X181528Y146654D01*
X182184Y148293D02*
X182512Y148621D01*
X183168D01*
X183496Y148293D01*
Y147966D01*
X183168Y147637D01*
X182840D01*
X183168D01*
X183496Y147310D01*
Y146982D01*
X183168Y146654D01*
X182512D01*
X182184Y146982D01*
X40059Y40945D02*
Y42913D01*
X41043D01*
X41371Y42585D01*
Y41929D01*
X41043Y41601D01*
X40059D01*
X40715D02*
X41371Y40945D01*
X43339D02*
X42027D01*
X43339Y42257D01*
Y42585D01*
X43011Y42913D01*
X42355D01*
X42027Y42585D01*
X60138Y40748D02*
Y42716D01*
X61122D01*
X61450Y42388D01*
Y41732D01*
X61122Y41404D01*
X60138D01*
X60794D02*
X61450Y40748D01*
X62106D02*
X62762D01*
X62434D01*
Y42716D01*
X62106Y42388D01*
X234456Y101935D02*
Y103247D01*
X234128Y103575D01*
X233472D01*
X233144Y103247D01*
Y101935D01*
X233472Y101607D01*
X234128D01*
X233800Y102263D02*
X234456Y101607D01*
X234128D02*
X234456Y101935D01*
X236424Y101607D02*
X235112D01*
X236424Y102919D01*
Y103247D01*
X236096Y103575D01*
X235440D01*
X235112Y103247D01*
X223535Y191550D02*
Y192862D01*
X223207Y193190D01*
X222552D01*
X222224Y192862D01*
Y191550D01*
X222552Y191222D01*
X223207D01*
X222880Y191878D02*
X223535Y191222D01*
X223207D02*
X223535Y191550D01*
X224191Y191222D02*
X224847D01*
X224519D01*
Y193190D01*
X224191Y192862D01*
X251575Y83957D02*
Y85925D01*
X252559D01*
X252887Y85597D01*
Y84941D01*
X252559Y84613D01*
X251575D01*
X253543Y85597D02*
X253871Y85925D01*
X254527D01*
X254855Y85597D01*
Y85269D01*
X254527Y84941D01*
X254199D01*
X254527D01*
X254855Y84613D01*
Y84285D01*
X254527Y83957D01*
X253871D01*
X253543Y84285D01*
X218110Y66043D02*
Y64075D01*
X219094D01*
X219422Y64403D01*
Y65715D01*
X219094Y66043D01*
X218110D01*
X220078Y65715D02*
X220406Y66043D01*
X221062D01*
X221390Y65715D01*
Y65387D01*
X221062Y65059D01*
X220734D01*
X221062D01*
X221390Y64731D01*
Y64403D01*
X221062Y64075D01*
X220406D01*
X220078Y64403D01*
X113583Y17617D02*
Y15650D01*
X114567D01*
X114895Y15978D01*
Y17289D01*
X114567Y17617D01*
X113583D01*
X116862Y15650D02*
X115551D01*
X116862Y16962D01*
Y17289D01*
X116534Y17617D01*
X115879D01*
X115551Y17289D01*
X113878Y37204D02*
Y35236D01*
X114862D01*
X115190Y35564D01*
Y36876D01*
X114862Y37204D01*
X113878D01*
X115846Y35236D02*
X116502D01*
X116174D01*
Y37204D01*
X115846Y36876D01*
X156430Y104691D02*
X156102Y105019D01*
X155446D01*
X155118Y104691D01*
Y103379D01*
X155446Y103051D01*
X156102D01*
X156430Y103379D01*
X157086Y103051D02*
X157742D01*
X157414D01*
Y105019D01*
X157086Y104691D01*
X158726Y103051D02*
X159382D01*
X159054D01*
Y105019D01*
X158726Y104691D01*
X237434Y7545D02*
X237106Y7873D01*
X236450D01*
X236122Y7545D01*
Y6233D01*
X236450Y5906D01*
X237106D01*
X237434Y6233D01*
X238090Y5906D02*
X238746D01*
X238418D01*
Y7873D01*
X238090Y7545D01*
X239730D02*
X240058Y7873D01*
X240714D01*
X241042Y7545D01*
Y6233D01*
X240714Y5906D01*
X240058D01*
X239730Y6233D01*
Y7545D01*
X151410Y74671D02*
X151082Y74999D01*
X150426D01*
X150098Y74671D01*
Y73360D01*
X150426Y73032D01*
X151082D01*
X151410Y73360D01*
X152066D02*
X152394Y73032D01*
X153050D01*
X153378Y73360D01*
Y74671D01*
X153050Y74999D01*
X152394D01*
X152066Y74671D01*
Y74343D01*
X152394Y74015D01*
X153378D01*
X108300Y122801D02*
X107972Y123129D01*
X107316D01*
X106988Y122801D01*
Y121489D01*
X107316Y121161D01*
X107972D01*
X108300Y121489D01*
X108956Y122801D02*
X109284Y123129D01*
X109940D01*
X110268Y122801D01*
Y122473D01*
X109940Y122145D01*
X110268Y121817D01*
Y121489D01*
X109940Y121161D01*
X109284D01*
X108956Y121489D01*
Y121817D01*
X109284Y122145D01*
X108956Y122473D01*
Y122801D01*
X109284Y122145D02*
X109940D01*
X221981Y103707D02*
X221653Y104035D01*
X220997D01*
X220669Y103707D01*
Y102395D01*
X220997Y102067D01*
X221653D01*
X221981Y102395D01*
X222637Y104035D02*
X223949D01*
Y103707D01*
X222637Y102395D01*
Y102067D01*
X172645Y161212D02*
X172317Y161539D01*
X171661D01*
X171333Y161212D01*
Y159900D01*
X171661Y159572D01*
X172317D01*
X172645Y159900D01*
X174613Y161539D02*
X173957Y161212D01*
X173301Y160556D01*
Y159900D01*
X173629Y159572D01*
X174285D01*
X174613Y159900D01*
Y160228D01*
X174285Y160556D01*
X173301D01*
X108712Y169240D02*
X108384Y169568D01*
X107728D01*
X107400Y169240D01*
Y167928D01*
X107728Y167600D01*
X108384D01*
X108712Y167928D01*
X110680Y169568D02*
X109368D01*
Y168584D01*
X110024Y168912D01*
X110352D01*
X110680Y168584D01*
Y167928D01*
X110352Y167600D01*
X109696D01*
X109368Y167928D01*
X129068Y118963D02*
X128740Y119291D01*
X128084D01*
X127756Y118963D01*
Y117651D01*
X128084Y117323D01*
X128740D01*
X129068Y117651D01*
X129724Y118963D02*
X130052Y119291D01*
X130708D01*
X131036Y118963D01*
Y118635D01*
X130708Y118307D01*
X130380D01*
X130708D01*
X131036Y117979D01*
Y117651D01*
X130708Y117323D01*
X130052D01*
X129724Y117651D01*
X80151Y101541D02*
X79822Y101869D01*
X79167D01*
X78839Y101541D01*
Y100230D01*
X79167Y99902D01*
X79822D01*
X80151Y100230D01*
X82118Y99902D02*
X80806D01*
X82118Y101214D01*
Y101541D01*
X81790Y101869D01*
X81134D01*
X80806Y101541D01*
X185728Y176968D02*
X187040D01*
X186384D01*
Y175000D01*
X187696D02*
Y176968D01*
X188680D01*
X189008Y176640D01*
Y175984D01*
X188680Y175656D01*
X187696D01*
X189664Y175000D02*
X190320D01*
X189992D01*
Y176968D01*
X189664Y176640D01*
X145374Y176377D02*
X146686D01*
X146030D01*
Y174409D01*
X147342D02*
Y176377D01*
X148326D01*
X148654Y176049D01*
Y175393D01*
X148326Y175065D01*
X147342D01*
X150622Y174409D02*
X149310D01*
X150622Y175721D01*
Y176049D01*
X150294Y176377D01*
X149638D01*
X149310Y176049D01*
X157906Y97506D02*
X157578Y97834D01*
X156922D01*
X156595Y97506D01*
Y96194D01*
X156922Y95866D01*
X157578D01*
X157906Y96194D01*
X158562Y95866D02*
X159218D01*
X158890D01*
Y97834D01*
X158562Y97506D01*
X156528Y111384D02*
X156201Y111712D01*
X155544D01*
X155217Y111384D01*
Y110072D01*
X155544Y109744D01*
X156201D01*
X156528Y110072D01*
X158168Y109744D02*
Y111712D01*
X157184Y110728D01*
X158496D01*
X41064Y57774D02*
Y55806D01*
X42048D01*
X42376Y56134D01*
Y57446D01*
X42048Y57774D01*
X41064D01*
X44344D02*
X43031D01*
Y56790D01*
X43687Y57118D01*
X44015D01*
X44344Y56790D01*
Y56134D01*
X44015Y55806D01*
X43360D01*
X43031Y56134D01*
X8760Y127953D02*
Y129921D01*
X9744D01*
X10072Y129593D01*
Y128937D01*
X9744Y128609D01*
X8760D01*
X12040Y127953D02*
X10728D01*
X12040Y129265D01*
Y129593D01*
X11712Y129921D01*
X11056D01*
X10728Y129593D01*
X180840Y134415D02*
X180511Y134743D01*
X179856D01*
X179528Y134415D01*
Y133104D01*
X179856Y132776D01*
X180511D01*
X180840Y133104D01*
X181495Y132776D02*
X182151D01*
X181823D01*
Y134743D01*
X181495Y134415D01*
X184447Y132776D02*
X183135D01*
X184447Y134088D01*
Y134415D01*
X184119Y134743D01*
X183463D01*
X183135Y134415D01*
X192913Y165811D02*
Y167123D01*
X192586Y167451D01*
X191929D01*
X191602Y167123D01*
Y165811D01*
X191929Y165483D01*
X192586D01*
X192257Y166139D02*
X192913Y165483D01*
X192586D02*
X192913Y165811D01*
X193569Y167123D02*
X193897Y167451D01*
X194553D01*
X194881Y167123D01*
Y166795D01*
X194553Y166467D01*
X194225D01*
X194553D01*
X194881Y166139D01*
Y165811D01*
X194553Y165483D01*
X193897D01*
X193569Y165811D01*
X202788Y144324D02*
Y145636D01*
X202460Y145964D01*
X201804D01*
X201476Y145636D01*
Y144324D01*
X201804Y143996D01*
X202460D01*
X202132Y144652D02*
X202788Y143996D01*
X202460D02*
X202788Y144324D01*
X204428Y143996D02*
Y145964D01*
X203444Y144980D01*
X204756D01*
X221300Y135805D02*
Y137773D01*
X222284D01*
X222612Y137445D01*
Y136789D01*
X222284Y136461D01*
X221300D01*
X221956D02*
X222612Y135805D01*
X224252D02*
Y137773D01*
X223268Y136789D01*
X224580D01*
X231461Y135797D02*
Y137765D01*
X232445D01*
X232773Y137437D01*
Y136781D01*
X232445Y136453D01*
X231461D01*
X232117D02*
X232773Y135797D01*
X234741Y137765D02*
X233429D01*
Y136781D01*
X234085Y137109D01*
X234413D01*
X234741Y136781D01*
Y136125D01*
X234413Y135797D01*
X233757D01*
X233429Y136125D01*
X211264Y135803D02*
Y137771D01*
X212248D01*
X212576Y137443D01*
Y136787D01*
X212248Y136459D01*
X211264D01*
X211920D02*
X212576Y135803D01*
X214544Y137771D02*
X213888Y137443D01*
X213232Y136787D01*
Y136131D01*
X213560Y135803D01*
X214216D01*
X214544Y136131D01*
Y136459D01*
X214216Y136787D01*
X213232D01*
X177100Y39384D02*
X176912Y39571D01*
X176631Y39665D01*
X176256D01*
X175975Y39571D01*
X175787Y39384D01*
Y39196D01*
X175881Y39009D01*
X175975Y38915D01*
X176162Y38821D01*
X176725Y38634D01*
X176912Y38540D01*
X177006Y38447D01*
X177100Y38259D01*
Y37978D01*
X176912Y37791D01*
X176631Y37697D01*
X176256D01*
X175975Y37791D01*
X175787Y37978D01*
X178946Y39196D02*
X178852Y39384D01*
X178665Y39571D01*
X178477Y39665D01*
X178102D01*
X177915Y39571D01*
X177727Y39384D01*
X177634Y39196D01*
X177540Y38915D01*
Y38447D01*
X177634Y38165D01*
X177727Y37978D01*
X177915Y37791D01*
X178102Y37697D01*
X178477D01*
X178665Y37791D01*
X178852Y37978D01*
X178946Y38165D01*
X177193Y18330D02*
X177100Y18518D01*
X176912Y18705D01*
X176725Y18799D01*
X176350D01*
X176162Y18705D01*
X175975Y18518D01*
X175881Y18330D01*
X175787Y18049D01*
Y17580D01*
X175881Y17299D01*
X175975Y17112D01*
X176162Y16924D01*
X176350Y16831D01*
X176725D01*
X176912Y16924D01*
X177100Y17112D01*
X177193Y17299D01*
X177746Y18799D02*
Y16831D01*
Y18799D02*
X179058Y16831D01*
Y18799D02*
Y16831D01*
X179602Y18799D02*
Y16831D01*
Y18799D02*
X180820D01*
X179602Y17862D02*
X180351D01*
X182451Y18330D02*
X182357Y18518D01*
X182170Y18705D01*
X181982Y18799D01*
X181607D01*
X181420Y18705D01*
X181232Y18518D01*
X181139Y18330D01*
X181045Y18049D01*
Y17580D01*
X181139Y17299D01*
X181232Y17112D01*
X181420Y16924D01*
X181607Y16831D01*
X181982D01*
X182170Y16924D01*
X182357Y17112D01*
X182451Y17299D01*
Y17580D01*
X181982D02*
X182451D01*
X91470Y5329D02*
X91282Y5516D01*
X91001Y5610D01*
X90626D01*
X90345Y5516D01*
X90158Y5329D01*
Y5141D01*
X90251Y4954D01*
X90345Y4860D01*
X90532Y4766D01*
X91095Y4579D01*
X91282Y4485D01*
X91376Y4391D01*
X91470Y4204D01*
Y3923D01*
X91282Y3735D01*
X91001Y3642D01*
X90626D01*
X90345Y3735D01*
X90158Y3923D01*
X93316Y5141D02*
X93222Y5329D01*
X93035Y5516D01*
X92847Y5610D01*
X92472D01*
X92285Y5516D01*
X92098Y5329D01*
X92004Y5141D01*
X91910Y4860D01*
Y4391D01*
X92004Y4110D01*
X92098Y3923D01*
X92285Y3735D01*
X92472Y3642D01*
X92847D01*
X93035Y3735D01*
X93222Y3923D01*
X93316Y4110D01*
X96540Y4954D02*
Y3454D01*
X96446Y3173D01*
X96352Y3079D01*
X96165Y2986D01*
X95884D01*
X95696Y3079D01*
X96540Y4673D02*
X96352Y4860D01*
X96165Y4954D01*
X95884D01*
X95696Y4860D01*
X95509Y4673D01*
X95415Y4391D01*
Y4204D01*
X95509Y3923D01*
X95696Y3735D01*
X95884Y3642D01*
X96165D01*
X96352Y3735D01*
X96540Y3923D01*
X97065Y4391D02*
X98189D01*
Y4579D01*
X98095Y4766D01*
X98002Y4860D01*
X97814Y4954D01*
X97533D01*
X97346Y4860D01*
X97158Y4673D01*
X97065Y4391D01*
Y4204D01*
X97158Y3923D01*
X97346Y3735D01*
X97533Y3642D01*
X97814D01*
X98002Y3735D01*
X98189Y3923D01*
X98611Y4954D02*
Y3642D01*
Y4579D02*
X98892Y4860D01*
X99079Y4954D01*
X99361D01*
X99548Y4860D01*
X99642Y4579D01*
Y3642D01*
X100157Y4391D02*
X101282D01*
Y4579D01*
X101188Y4766D01*
X101094Y4860D01*
X100907Y4954D01*
X100626D01*
X100438Y4860D01*
X100251Y4673D01*
X100157Y4391D01*
Y4204D01*
X100251Y3923D01*
X100438Y3735D01*
X100626Y3642D01*
X100907D01*
X101094Y3735D01*
X101282Y3923D01*
X101704Y4954D02*
Y3642D01*
Y4391D02*
X101797Y4673D01*
X101985Y4860D01*
X102172Y4954D01*
X102453D01*
X103756D02*
Y3642D01*
Y4673D02*
X103569Y4860D01*
X103381Y4954D01*
X103100D01*
X102912Y4860D01*
X102725Y4673D01*
X102631Y4391D01*
Y4204D01*
X102725Y3923D01*
X102912Y3735D01*
X103100Y3642D01*
X103381D01*
X103569Y3735D01*
X103756Y3923D01*
X104562Y5610D02*
Y4017D01*
X104656Y3735D01*
X104843Y3642D01*
X105031D01*
X104281Y4954D02*
X104937D01*
X105780D02*
X105593Y4860D01*
X105405Y4673D01*
X105312Y4391D01*
Y4204D01*
X105405Y3923D01*
X105593Y3735D01*
X105780Y3642D01*
X106061D01*
X106249Y3735D01*
X106436Y3923D01*
X106530Y4204D01*
Y4391D01*
X106436Y4673D01*
X106249Y4860D01*
X106061Y4954D01*
X105780D01*
X106961D02*
Y3642D01*
Y4391D02*
X107055Y4673D01*
X107242Y4860D01*
X107430Y4954D01*
X107711D01*
X109435D02*
X109998Y3642D01*
X110560Y4954D02*
X109998Y3642D01*
X110879Y5235D02*
X111066Y5329D01*
X111347Y5610D01*
Y3642D01*
X113868Y5610D02*
Y3642D01*
X115827Y4579D02*
X116670D01*
X116952Y4673D01*
X117045Y4766D01*
X117139Y4954D01*
Y5235D01*
X117045Y5422D01*
X116952Y5516D01*
X116670Y5610D01*
X115827D01*
Y3642D01*
X118704Y4954D02*
Y3642D01*
Y4673D02*
X118517Y4860D01*
X118329Y4954D01*
X118048D01*
X117861Y4860D01*
X117673Y4673D01*
X117579Y4391D01*
Y4204D01*
X117673Y3923D01*
X117861Y3735D01*
X118048Y3642D01*
X118329D01*
X118517Y3735D01*
X118704Y3923D01*
X119229Y5610D02*
Y3642D01*
Y4673D02*
X119416Y4860D01*
X119604Y4954D01*
X119885D01*
X120072Y4860D01*
X120260Y4673D01*
X120353Y4391D01*
Y4204D01*
X120260Y3923D01*
X120072Y3735D01*
X119885Y3642D01*
X119604D01*
X119416Y3735D01*
X119229Y3923D01*
X120775Y5610D02*
Y3642D01*
X121656Y4954D02*
X121469Y4860D01*
X121281Y4673D01*
X121188Y4391D01*
Y4204D01*
X121281Y3923D01*
X121469Y3735D01*
X121656Y3642D01*
X121937D01*
X122125Y3735D01*
X122312Y3923D01*
X122406Y4204D01*
Y4391D01*
X122312Y4673D01*
X122125Y4860D01*
X121937Y4954D01*
X121656D01*
X125883Y3642D02*
X125133Y5610D01*
X124383Y3642D01*
X124664Y4298D02*
X125602D01*
X126342Y5610D02*
Y3642D01*
X126942Y5610D02*
X127036Y5516D01*
X127129Y5610D01*
X127036Y5703D01*
X126942Y5610D01*
X127036Y4954D02*
Y3642D01*
X128601Y4954D02*
Y3642D01*
Y4673D02*
X128413Y4860D01*
X128226Y4954D01*
X127945D01*
X127757Y4860D01*
X127570Y4673D01*
X127476Y4391D01*
Y4204D01*
X127570Y3923D01*
X127757Y3735D01*
X127945Y3642D01*
X128226D01*
X128413Y3735D01*
X128601Y3923D01*
X130156Y4673D02*
X130063Y4860D01*
X129781Y4954D01*
X129500D01*
X129219Y4860D01*
X129125Y4673D01*
X129219Y4485D01*
X129407Y4391D01*
X129875Y4298D01*
X130063Y4204D01*
X130156Y4017D01*
Y3923D01*
X130063Y3735D01*
X129781Y3642D01*
X129500D01*
X129219Y3735D01*
X129125Y3923D01*
X132115Y5610D02*
Y3642D01*
Y5610D02*
X132865Y3642D01*
X133615Y5610D02*
X132865Y3642D01*
X133615Y5610D02*
Y3642D01*
X135301Y4954D02*
Y3642D01*
Y4673D02*
X135114Y4860D01*
X134927Y4954D01*
X134645D01*
X134458Y4860D01*
X134271Y4673D01*
X134177Y4391D01*
Y4204D01*
X134271Y3923D01*
X134458Y3735D01*
X134645Y3642D01*
X134927D01*
X135114Y3735D01*
X135301Y3923D01*
X136108Y5610D02*
Y4017D01*
X136201Y3735D01*
X136389Y3642D01*
X136576D01*
X135826Y4954D02*
X136482D01*
X136857Y4391D02*
X137982D01*
Y4579D01*
X137888Y4766D01*
X137794Y4860D01*
X137607Y4954D01*
X137326D01*
X137138Y4860D01*
X136951Y4673D01*
X136857Y4391D01*
Y4204D01*
X136951Y3923D01*
X137138Y3735D01*
X137326Y3642D01*
X137607D01*
X137794Y3735D01*
X137982Y3923D01*
X138872Y4954D02*
X138685Y4860D01*
X138497Y4673D01*
X138404Y4391D01*
Y4204D01*
X138497Y3923D01*
X138685Y3735D01*
X138872Y3642D01*
X139153D01*
X139341Y3735D01*
X139528Y3923D01*
X139622Y4204D01*
Y4391D01*
X139528Y4673D01*
X139341Y4860D01*
X139153Y4954D01*
X138872D01*
X141084Y4673D02*
X140990Y4860D01*
X140709Y4954D01*
X140428D01*
X140147Y4860D01*
X140053Y4673D01*
X140147Y4485D01*
X140334Y4391D01*
X140803Y4298D01*
X140990Y4204D01*
X141084Y4017D01*
Y3923D01*
X140990Y3735D01*
X140709Y3642D01*
X140428D01*
X140147Y3735D01*
X140053Y3923D01*
X104921Y46555D02*
Y44587D01*
Y46555D02*
X105671Y44587D01*
X106421Y46555D02*
X105671Y44587D01*
X106421Y46555D02*
Y44587D01*
X108108Y45899D02*
Y44587D01*
Y45617D02*
X107920Y45805D01*
X107733Y45899D01*
X107452D01*
X107264Y45805D01*
X107077Y45617D01*
X106983Y45336D01*
Y45149D01*
X107077Y44868D01*
X107264Y44680D01*
X107452Y44587D01*
X107733D01*
X107920Y44680D01*
X108108Y44868D01*
X108820Y46555D02*
X108914Y46461D01*
X109007Y46555D01*
X108914Y46648D01*
X108820Y46555D01*
X108914Y45899D02*
Y44587D01*
X109354Y45899D02*
Y44587D01*
Y45524D02*
X109635Y45805D01*
X109823Y45899D01*
X110104D01*
X110291Y45805D01*
X110385Y45524D01*
Y44587D01*
X112447Y45524D02*
X113290D01*
X113572Y45617D01*
X113665Y45711D01*
X113759Y45899D01*
Y46180D01*
X113665Y46367D01*
X113572Y46461D01*
X113290Y46555D01*
X112447D01*
Y44587D01*
X115511Y46273D02*
X115324Y46461D01*
X115043Y46555D01*
X114668D01*
X114387Y46461D01*
X114199Y46273D01*
Y46086D01*
X114293Y45899D01*
X114387Y45805D01*
X114574Y45711D01*
X115137Y45524D01*
X115324Y45430D01*
X115418Y45336D01*
X115511Y45149D01*
Y44868D01*
X115324Y44680D01*
X115043Y44587D01*
X114668D01*
X114387Y44680D01*
X114199Y44868D01*
X105287Y26673D02*
X105099Y26579D01*
X104912Y26392D01*
X104818Y26204D01*
X104724Y25923D01*
Y25455D01*
X104818Y25173D01*
X104912Y24986D01*
X105099Y24798D01*
X105287Y24705D01*
X105662D01*
X105849Y24798D01*
X106036Y24986D01*
X106130Y25173D01*
X106224Y25455D01*
Y25923D01*
X106130Y26204D01*
X106036Y26392D01*
X105849Y26579D01*
X105662Y26673D01*
X105287D01*
X106683D02*
Y24705D01*
Y26673D02*
X107995Y24705D01*
Y26673D02*
Y24705D01*
X108539Y24424D02*
X109851Y26673D01*
X110544D02*
X110357Y26579D01*
X110169Y26392D01*
X110076Y26204D01*
X109982Y25923D01*
Y25455D01*
X110076Y25173D01*
X110169Y24986D01*
X110357Y24798D01*
X110544Y24705D01*
X110919D01*
X111107Y24798D01*
X111294Y24986D01*
X111388Y25173D01*
X111481Y25455D01*
Y25923D01*
X111388Y26204D01*
X111294Y26392D01*
X111107Y26579D01*
X110919Y26673D01*
X110544D01*
X111941D02*
Y24705D01*
Y26673D02*
X113159D01*
X111941Y25736D02*
X112690D01*
X113384Y26673D02*
Y24705D01*
Y26673D02*
X114602D01*
X113384Y25736D02*
X114134D01*
X192454Y5329D02*
X192266Y5516D01*
X191985Y5610D01*
X191610D01*
X191329Y5516D01*
X191142Y5329D01*
Y5141D01*
X191235Y4954D01*
X191329Y4860D01*
X191517Y4766D01*
X192079Y4579D01*
X192266Y4485D01*
X192360Y4391D01*
X192454Y4204D01*
Y3923D01*
X192266Y3735D01*
X191985Y3642D01*
X191610D01*
X191329Y3735D01*
X191142Y3923D01*
X194300Y5141D02*
X194206Y5329D01*
X194019Y5516D01*
X193831Y5610D01*
X193457D01*
X193269Y5516D01*
X193082Y5329D01*
X192988Y5141D01*
X192894Y4860D01*
Y4391D01*
X192988Y4110D01*
X193082Y3923D01*
X193269Y3735D01*
X193457Y3642D01*
X193831D01*
X194019Y3735D01*
X194206Y3923D01*
X194300Y4110D01*
X196680Y5610D02*
Y4017D01*
X196774Y3735D01*
X196962Y3642D01*
X197149D01*
X196399Y4954D02*
X197055D01*
X197430D02*
Y3642D01*
Y4391D02*
X197524Y4673D01*
X197711Y4860D01*
X197899Y4954D01*
X198180D01*
X198546Y5610D02*
X198639Y5516D01*
X198733Y5610D01*
X198639Y5703D01*
X198546Y5610D01*
X198639Y4954D02*
Y3642D01*
X200204Y4954D02*
Y3454D01*
X200111Y3173D01*
X200017Y3079D01*
X199829Y2986D01*
X199548D01*
X199361Y3079D01*
X200204Y4673D02*
X200017Y4860D01*
X199829Y4954D01*
X199548D01*
X199361Y4860D01*
X199173Y4673D01*
X199080Y4391D01*
Y4204D01*
X199173Y3923D01*
X199361Y3735D01*
X199548Y3642D01*
X199829D01*
X200017Y3735D01*
X200204Y3923D01*
X201854Y4954D02*
Y3454D01*
X201760Y3173D01*
X201666Y3079D01*
X201479Y2986D01*
X201198D01*
X201010Y3079D01*
X201854Y4673D02*
X201666Y4860D01*
X201479Y4954D01*
X201198D01*
X201010Y4860D01*
X200823Y4673D01*
X200729Y4391D01*
Y4204D01*
X200823Y3923D01*
X201010Y3735D01*
X201198Y3642D01*
X201479D01*
X201666Y3735D01*
X201854Y3923D01*
X202379Y4391D02*
X203503D01*
Y4579D01*
X203409Y4766D01*
X203316Y4860D01*
X203128Y4954D01*
X202847D01*
X202660Y4860D01*
X202472Y4673D01*
X202379Y4391D01*
Y4204D01*
X202472Y3923D01*
X202660Y3735D01*
X202847Y3642D01*
X203128D01*
X203316Y3735D01*
X203503Y3923D01*
X203925Y4954D02*
Y3642D01*
Y4391D02*
X204019Y4673D01*
X204206Y4860D01*
X204394Y4954D01*
X204675D01*
X162336Y4673D02*
X162148Y4860D01*
X161867Y4954D01*
X161492D01*
X161211Y4860D01*
X161024Y4673D01*
Y4485D01*
X161117Y4298D01*
X161211Y4204D01*
X161398Y4110D01*
X161961Y3923D01*
X162148Y3829D01*
X162242Y3735D01*
X162336Y3548D01*
Y3267D01*
X162148Y3079D01*
X161867Y2986D01*
X161492D01*
X161211Y3079D01*
X161024Y3267D01*
X163995Y4954D02*
X162776D01*
Y2986D01*
X163995D01*
X162776Y4017D02*
X163526D01*
X164322Y4954D02*
Y2986D01*
X165447D01*
X167209Y4298D02*
Y2986D01*
Y3923D02*
X167490Y4204D01*
X167678Y4298D01*
X167959D01*
X168146Y4204D01*
X168240Y3923D01*
Y2986D01*
Y3923D02*
X168521Y4204D01*
X168709Y4298D01*
X168990D01*
X169177Y4204D01*
X169271Y3923D01*
Y2986D01*
X170358Y4298D02*
X170170Y4204D01*
X169983Y4017D01*
X169889Y3735D01*
Y3548D01*
X169983Y3267D01*
X170170Y3079D01*
X170358Y2986D01*
X170639D01*
X170826Y3079D01*
X171014Y3267D01*
X171108Y3548D01*
Y3735D01*
X171014Y4017D01*
X170826Y4204D01*
X170639Y4298D01*
X170358D01*
X172663Y4954D02*
Y2986D01*
Y4017D02*
X172476Y4204D01*
X172289Y4298D01*
X172007D01*
X171820Y4204D01*
X171633Y4017D01*
X171539Y3735D01*
Y3548D01*
X171633Y3267D01*
X171820Y3079D01*
X172007Y2986D01*
X172289D01*
X172476Y3079D01*
X172663Y3267D01*
X173188Y3735D02*
X174313D01*
Y3923D01*
X174219Y4110D01*
X174125Y4204D01*
X173938Y4298D01*
X173657D01*
X173469Y4204D01*
X173282Y4017D01*
X173188Y3735D01*
Y3548D01*
X173282Y3267D01*
X173469Y3079D01*
X173657Y2986D01*
X173938D01*
X174125Y3079D01*
X174313Y3267D01*
X164988Y191854D02*
X164895Y192041D01*
X164707Y192229D01*
X164520Y192322D01*
X164145D01*
X163958Y192229D01*
X163770Y192041D01*
X163676Y191854D01*
X163583Y191573D01*
Y191104D01*
X163676Y190823D01*
X163770Y190636D01*
X163958Y190448D01*
X164145Y190354D01*
X164520D01*
X164707Y190448D01*
X164895Y190636D01*
X164988Y190823D01*
Y191104D01*
X164520D02*
X164988D01*
X165438Y192322D02*
Y190354D01*
Y192322D02*
X166750Y190354D01*
Y192322D02*
Y190354D01*
X167294Y192322D02*
Y190354D01*
Y192322D02*
X167950D01*
X168231Y192229D01*
X168419Y192041D01*
X168512Y191854D01*
X168606Y191573D01*
Y191104D01*
X168512Y190823D01*
X168419Y190636D01*
X168231Y190448D01*
X167950Y190354D01*
X167294D01*
X132424Y192815D02*
X131487D01*
X131393Y191971D01*
X131487Y192065D01*
X131768Y192158D01*
X132049D01*
X132330Y192065D01*
X132518Y191877D01*
X132611Y191596D01*
Y191409D01*
X132518Y191128D01*
X132330Y190940D01*
X132049Y190847D01*
X131768D01*
X131487Y190940D01*
X131393Y191034D01*
X131299Y191221D01*
X134176Y192815D02*
X133239D01*
X133145Y191971D01*
X133239Y192065D01*
X133520Y192158D01*
X133801D01*
X134083Y192065D01*
X134270Y191877D01*
X134364Y191596D01*
Y191409D01*
X134270Y191128D01*
X134083Y190940D01*
X133801Y190847D01*
X133520D01*
X133239Y190940D01*
X133145Y191034D01*
X133052Y191221D01*
X135929Y192815D02*
X134992D01*
X134898Y191971D01*
X134992Y192065D01*
X135273Y192158D01*
X135554D01*
X135835Y192065D01*
X136023Y191877D01*
X136116Y191596D01*
Y191409D01*
X136023Y191128D01*
X135835Y190940D01*
X135554Y190847D01*
X135273D01*
X134992Y190940D01*
X134898Y191034D01*
X134804Y191221D01*
X138572Y192158D02*
X138384Y192065D01*
X138197Y191877D01*
X138103Y191596D01*
Y191409D01*
X138197Y191128D01*
X138384Y190940D01*
X138572Y190847D01*
X138853D01*
X139040Y190940D01*
X139228Y191128D01*
X139321Y191409D01*
Y191596D01*
X139228Y191877D01*
X139040Y192065D01*
X138853Y192158D01*
X138572D01*
X139753D02*
Y191221D01*
X139846Y190940D01*
X140034Y190847D01*
X140315D01*
X140502Y190940D01*
X140784Y191221D01*
Y192158D02*
Y190847D01*
X141580Y192815D02*
Y191221D01*
X141674Y190940D01*
X141861Y190847D01*
X142049D01*
X141299Y192158D02*
X141955D01*
X142330D02*
Y190190D01*
Y191877D02*
X142517Y192065D01*
X142705Y192158D01*
X142986D01*
X143173Y192065D01*
X143361Y191877D01*
X143455Y191596D01*
Y191409D01*
X143361Y191128D01*
X143173Y190940D01*
X142986Y190847D01*
X142705D01*
X142517Y190940D01*
X142330Y191128D01*
X143876Y192158D02*
Y191221D01*
X143970Y190940D01*
X144157Y190847D01*
X144439D01*
X144626Y190940D01*
X144907Y191221D01*
Y192158D02*
Y190847D01*
X145704Y192815D02*
Y191221D01*
X145797Y190940D01*
X145985Y190847D01*
X146172D01*
X145422Y192158D02*
X146079D01*
X304462Y146864D02*
X304274Y147052D01*
X303993Y147145D01*
X303618D01*
X303337Y147052D01*
X303150Y146864D01*
Y146677D01*
X303243Y146489D01*
X303337Y146396D01*
X303524Y146302D01*
X304087Y146114D01*
X304274Y146021D01*
X304368Y145927D01*
X304462Y145739D01*
Y145458D01*
X304274Y145271D01*
X303993Y145177D01*
X303618D01*
X303337Y145271D01*
X303150Y145458D01*
X306308Y146677D02*
X306214Y146864D01*
X306027Y147052D01*
X305839Y147145D01*
X305464D01*
X305277Y147052D01*
X305090Y146864D01*
X304996Y146677D01*
X304902Y146396D01*
Y145927D01*
X304996Y145646D01*
X305090Y145458D01*
X305277Y145271D01*
X305464Y145177D01*
X305839D01*
X306027Y145271D01*
X306214Y145458D01*
X306308Y145646D01*
X309251Y146864D02*
Y145177D01*
X308407Y146021D02*
X310094D01*
X304166Y97356D02*
X303979Y97544D01*
X303698Y97637D01*
X303323D01*
X303042Y97544D01*
X302854Y97356D01*
Y97169D01*
X302948Y96981D01*
X303042Y96888D01*
X303229Y96794D01*
X303791Y96606D01*
X303979Y96513D01*
X304073Y96419D01*
X304166Y96232D01*
Y95950D01*
X303979Y95763D01*
X303698Y95669D01*
X303323D01*
X303042Y95763D01*
X302854Y95950D01*
X306013Y97169D02*
X305919Y97356D01*
X305732Y97544D01*
X305544Y97637D01*
X305169D01*
X304982Y97544D01*
X304794Y97356D01*
X304701Y97169D01*
X304607Y96888D01*
Y96419D01*
X304701Y96138D01*
X304794Y95950D01*
X304982Y95763D01*
X305169Y95669D01*
X305544D01*
X305732Y95763D01*
X305919Y95950D01*
X306013Y96138D01*
X308112Y96513D02*
X309799D01*
X8858Y120196D02*
X9046Y120289D01*
X9327Y120570D01*
Y118602D01*
X10395Y120102D02*
Y120196D01*
X10489Y120383D01*
X10583Y120477D01*
X10770Y120570D01*
X11145D01*
X11332Y120477D01*
X11426Y120383D01*
X11520Y120196D01*
Y120008D01*
X11426Y119821D01*
X11239Y119539D01*
X10301Y118602D01*
X11614D01*
X12054Y120570D02*
X12804Y118602D01*
X13554Y120570D02*
X12804Y118602D01*
X16103Y120570D02*
X15915D01*
X15728Y120477D01*
X15634Y120196D01*
Y118602D01*
X15353Y119914D02*
X16009D01*
X16384Y120570D02*
Y118602D01*
X17265Y119914D02*
X17077Y119821D01*
X16890Y119633D01*
X16796Y119352D01*
Y119165D01*
X16890Y118884D01*
X17077Y118696D01*
X17265Y118602D01*
X17546D01*
X17733Y118696D01*
X17921Y118884D01*
X18014Y119165D01*
Y119352D01*
X17921Y119633D01*
X17733Y119821D01*
X17546Y119914D01*
X17265D01*
X19570D02*
Y118602D01*
Y119633D02*
X19383Y119821D01*
X19195Y119914D01*
X18914D01*
X18727Y119821D01*
X18539Y119633D01*
X18446Y119352D01*
Y119165D01*
X18539Y118884D01*
X18727Y118696D01*
X18914Y118602D01*
X19195D01*
X19383Y118696D01*
X19570Y118884D01*
X20376Y120570D02*
Y118977D01*
X20470Y118696D01*
X20657Y118602D01*
X20845D01*
X20095Y119914D02*
X20751D01*
X21313Y120570D02*
X21407Y120477D01*
X21501Y120570D01*
X21407Y120664D01*
X21313Y120570D01*
X21407Y119914D02*
Y118602D01*
X21848Y119914D02*
Y118602D01*
Y119539D02*
X22129Y119821D01*
X22316Y119914D01*
X22597D01*
X22785Y119821D01*
X22878Y119539D01*
Y118602D01*
X24519Y119914D02*
Y118415D01*
X24425Y118134D01*
X24331Y118040D01*
X24144Y117946D01*
X23863D01*
X23675Y118040D01*
X24519Y119633D02*
X24331Y119821D01*
X24144Y119914D01*
X23863D01*
X23675Y119821D01*
X23488Y119633D01*
X23394Y119352D01*
Y119165D01*
X23488Y118884D01*
X23675Y118696D01*
X23863Y118602D01*
X24144D01*
X24331Y118696D01*
X24519Y118884D01*
X28324Y120570D02*
X28417Y120477D01*
X28511Y120570D01*
X28417Y120664D01*
X28324Y120570D01*
X28417Y119914D02*
Y118602D01*
X28858Y119914D02*
Y118602D01*
Y119539D02*
X29139Y119821D01*
X29326Y119914D01*
X29607D01*
X29795Y119821D01*
X29889Y119539D01*
Y118602D01*
X30404Y119914D02*
Y117946D01*
Y119633D02*
X30591Y119821D01*
X30779Y119914D01*
X31060D01*
X31247Y119821D01*
X31435Y119633D01*
X31529Y119352D01*
Y119165D01*
X31435Y118884D01*
X31247Y118696D01*
X31060Y118602D01*
X30779D01*
X30591Y118696D01*
X30404Y118884D01*
X31950Y119914D02*
Y118977D01*
X32044Y118696D01*
X32232Y118602D01*
X32513D01*
X32700Y118696D01*
X32981Y118977D01*
Y119914D02*
Y118602D01*
X33778Y120570D02*
Y118977D01*
X33872Y118696D01*
X34059Y118602D01*
X34247D01*
X33497Y119914D02*
X34153D01*
X10077Y70308D02*
X9983Y70027D01*
X9795Y69840D01*
X9514Y69746D01*
X9421D01*
X9139Y69840D01*
X8952Y70027D01*
X8858Y70308D01*
Y70402D01*
X8952Y70683D01*
X9139Y70870D01*
X9421Y70964D01*
X9514D01*
X9795Y70870D01*
X9983Y70683D01*
X10077Y70308D01*
Y69840D01*
X9983Y69371D01*
X9795Y69090D01*
X9514Y68996D01*
X9327D01*
X9046Y69090D01*
X8952Y69277D01*
X10611Y70964D02*
X11361Y68996D01*
X12110Y70964D02*
X11361Y68996D01*
X14659Y70964D02*
X14472D01*
X14285Y70870D01*
X14191Y70589D01*
Y68996D01*
X13910Y70308D02*
X14566D01*
X14941Y70964D02*
Y68996D01*
X15822Y70308D02*
X15634Y70214D01*
X15447Y70027D01*
X15353Y69746D01*
Y69558D01*
X15447Y69277D01*
X15634Y69090D01*
X15822Y68996D01*
X16103D01*
X16290Y69090D01*
X16478Y69277D01*
X16571Y69558D01*
Y69746D01*
X16478Y70027D01*
X16290Y70214D01*
X16103Y70308D01*
X15822D01*
X18127D02*
Y68996D01*
Y70027D02*
X17940Y70214D01*
X17752Y70308D01*
X17471D01*
X17284Y70214D01*
X17096Y70027D01*
X17002Y69746D01*
Y69558D01*
X17096Y69277D01*
X17284Y69090D01*
X17471Y68996D01*
X17752D01*
X17940Y69090D01*
X18127Y69277D01*
X18933Y70964D02*
Y69371D01*
X19027Y69090D01*
X19214Y68996D01*
X19402D01*
X18652Y70308D02*
X19308D01*
X19870Y70964D02*
X19964Y70870D01*
X20058Y70964D01*
X19964Y71058D01*
X19870Y70964D01*
X19964Y70308D02*
Y68996D01*
X20404Y70308D02*
Y68996D01*
Y69933D02*
X20685Y70214D01*
X20873Y70308D01*
X21154D01*
X21341Y70214D01*
X21435Y69933D01*
Y68996D01*
X23075Y70308D02*
Y68809D01*
X22982Y68528D01*
X22888Y68434D01*
X22700Y68340D01*
X22419D01*
X22232Y68434D01*
X23075Y70027D02*
X22888Y70214D01*
X22700Y70308D01*
X22419D01*
X22232Y70214D01*
X22044Y70027D01*
X21951Y69746D01*
Y69558D01*
X22044Y69277D01*
X22232Y69090D01*
X22419Y68996D01*
X22700D01*
X22888Y69090D01*
X23075Y69277D01*
X25334Y70964D02*
X25428Y70870D01*
X25521Y70964D01*
X25428Y71058D01*
X25334Y70964D01*
X25428Y70308D02*
Y68996D01*
X25868Y70308D02*
Y68996D01*
Y69933D02*
X26149Y70214D01*
X26337Y70308D01*
X26618D01*
X26805Y70214D01*
X26899Y69933D01*
Y68996D01*
X27415Y70308D02*
Y68340D01*
Y70027D02*
X27602Y70214D01*
X27789Y70308D01*
X28071D01*
X28258Y70214D01*
X28445Y70027D01*
X28539Y69746D01*
Y69558D01*
X28445Y69277D01*
X28258Y69090D01*
X28071Y68996D01*
X27789D01*
X27602Y69090D01*
X27415Y69277D01*
X28961Y70308D02*
Y69371D01*
X29054Y69090D01*
X29242Y68996D01*
X29523D01*
X29711Y69090D01*
X29992Y69371D01*
Y70308D02*
Y68996D01*
X30788Y70964D02*
Y69371D01*
X30882Y69090D01*
X31069Y68996D01*
X31257D01*
X30507Y70308D02*
X31163D01*
X3937Y62204D02*
X4687Y60236D01*
X5437Y62204D02*
X4687Y60236D01*
X6814Y61267D02*
X6627Y61454D01*
X6439Y61548D01*
X6158D01*
X5971Y61454D01*
X5783Y61267D01*
X5689Y60986D01*
Y60799D01*
X5783Y60517D01*
X5971Y60330D01*
X6158Y60236D01*
X6439D01*
X6627Y60330D01*
X6814Y60517D01*
X8360Y61267D02*
X8173Y61454D01*
X7986Y61548D01*
X7705D01*
X7517Y61454D01*
X7330Y61267D01*
X7236Y60986D01*
Y60799D01*
X7330Y60517D01*
X7517Y60330D01*
X7705Y60236D01*
X7986D01*
X8173Y60330D01*
X8360Y60517D01*
X4949Y51401D02*
X4855Y51588D01*
X4668Y51776D01*
X4481Y51870D01*
X4106D01*
X3918Y51776D01*
X3731Y51588D01*
X3637Y51401D01*
X3543Y51120D01*
Y50651D01*
X3637Y50370D01*
X3731Y50183D01*
X3918Y49995D01*
X4106Y49902D01*
X4481D01*
X4668Y49995D01*
X4855Y50183D01*
X4949Y50370D01*
Y50651D01*
X4481D02*
X4949D01*
X5399Y51870D02*
Y49902D01*
Y51870D02*
X6711Y49902D01*
Y51870D02*
Y49902D01*
X7255Y51870D02*
Y49902D01*
Y51870D02*
X7911D01*
X8192Y51776D01*
X8379Y51588D01*
X8473Y51401D01*
X8567Y51120D01*
Y50651D01*
X8473Y50370D01*
X8379Y50183D01*
X8192Y49995D01*
X7911Y49902D01*
X7255D01*
D49*
X116681Y102000D02*
G03*
X116681Y102000I-1181J0D01*
G01*
X148681Y153520D02*
G03*
X148681Y153520I-1181J0D01*
G01*
X186681Y102000D02*
G03*
X186681Y102000I-1181J0D01*
G01*
D50*
X106492Y107000D02*
G03*
X106492Y107000I-492J0D01*
G01*
X90847Y156543D02*
G03*
X90847Y156543I-492J0D01*
G01*
X239862Y85630D02*
G03*
X239862Y85630I-492J0D01*
G01*
X215016Y155622D02*
G03*
X215016Y155622I-492J0D01*
G01*
X138492Y158520D02*
G03*
X138492Y158520I-492J0D01*
G01*
X192717Y151575D02*
G03*
X192717Y151575I-492J0D01*
G01*
X196539Y143882D02*
G03*
X196539Y143882I-492J0D01*
G01*
X176492Y107000D02*
G03*
X176492Y107000I-492J0D01*
G01*
D51*
X44698Y65819D02*
Y66311D01*
X56115Y65819D02*
Y66311D01*
X44698Y59618D02*
Y60110D01*
X56115Y59618D02*
Y60110D01*
X44698Y66311D02*
X56115D01*
X44698Y59618D02*
X56115D01*
X112126Y66315D02*
X127874D01*
X112126Y105685D02*
X127874D01*
Y66315D02*
Y105685D01*
X112126Y66315D02*
Y105685D01*
X96850Y135658D02*
X103150D01*
X96850Y155342D02*
X103150D01*
Y135658D02*
Y155342D01*
X96850Y135658D02*
Y155342D01*
X230512Y78445D02*
X231004D01*
X230512Y67028D02*
X231004D01*
X224311Y78445D02*
X224803D01*
X224311Y67028D02*
X224803D01*
X231004D02*
Y78445D01*
X224311Y67028D02*
Y78445D01*
X230118Y98425D02*
X235925D01*
X230118Y88189D02*
X235925D01*
X230118D02*
Y89961D01*
Y96654D02*
Y98425D01*
X209024Y145122D02*
Y188429D01*
X238024Y145122D02*
Y188429D01*
X74451Y74228D02*
X75878D01*
X71842Y76837D02*
X74451Y74228D01*
X86951D02*
X89559Y76837D01*
X85524Y74228D02*
X86951D01*
X71842Y76837D02*
Y91945D01*
X75878D01*
X85524D02*
X89559D01*
Y76837D02*
Y91945D01*
X65650Y31890D02*
X69193D01*
X65650Y37795D02*
X69193D01*
X46654Y37795D02*
X50197D01*
X46654Y31890D02*
X50197D01*
X106496Y36024D02*
Y36417D01*
X111220Y36024D02*
Y36417D01*
X111122Y15945D02*
Y16339D01*
X106398Y15945D02*
Y16339D01*
X231602Y17303D02*
Y20846D01*
X225697Y17303D02*
Y20846D01*
X231594Y42224D02*
X235138D01*
X231594Y48130D02*
X235138D01*
X231594Y59252D02*
X235138D01*
X231594Y53347D02*
X235138D01*
X179921Y137008D02*
X183465D01*
X179921Y142913D02*
X183465D01*
X139756Y87157D02*
Y90701D01*
X145661Y87157D02*
Y90701D01*
X144126Y117835D02*
X159874D01*
X144126Y157205D02*
X159874D01*
Y117835D02*
Y157205D01*
X144126Y117835D02*
Y157205D01*
X44685Y52559D02*
X56102D01*
X44685Y45866D02*
X56102D01*
X44685Y52067D02*
Y52559D01*
X56102Y52067D02*
Y52559D01*
X44685Y45866D02*
Y46358D01*
X56102Y45866D02*
Y46358D01*
X220142Y85972D02*
Y89516D01*
X214236Y85972D02*
Y89516D01*
X205020Y155020D02*
Y160827D01*
X194783Y155020D02*
Y160827D01*
X196555D01*
X203248D02*
X205020D01*
X199492Y131087D02*
X205299D01*
X199492Y141323D02*
X205299D01*
Y139551D02*
Y141323D01*
Y131087D02*
Y132858D01*
X212303Y122835D02*
Y126378D01*
X218209Y122835D02*
Y126378D01*
X222342Y122835D02*
Y126378D01*
X228248Y122835D02*
Y126378D01*
X238484Y122835D02*
Y126378D01*
X232579Y122835D02*
Y126378D01*
X176919Y113189D02*
X192027D01*
Y117224D01*
Y126870D02*
Y130905D01*
X176919D02*
X192027D01*
X174311Y115797D02*
Y117224D01*
Y115797D02*
X176919Y113189D01*
X174311Y128297D02*
X176919Y130905D01*
X174311Y126870D02*
Y128297D01*
X182126Y66315D02*
X197874D01*
X182126Y105685D02*
X197874D01*
Y66315D02*
Y105685D01*
X182126Y66315D02*
Y105685D01*
M02*
