G04 Layer_Color=8388736*
%FSLAX25Y25*%
%MOIN*%
G70*
G01*
G75*
%ADD52C,0.16548*%
%ADD53R,0.04737X0.04147*%
G04:AMPARAMS|DCode=54|XSize=41.47mil|YSize=47.37mil|CornerRadius=12.37mil|HoleSize=0mil|Usage=FLASHONLY|Rotation=270.000|XOffset=0mil|YOffset=0mil|HoleType=Round|Shape=RoundedRectangle|*
%AMROUNDEDRECTD54*
21,1,0.04147,0.02264,0,0,270.0*
21,1,0.01673,0.04737,0,0,270.0*
1,1,0.02473,-0.01132,-0.00837*
1,1,0.02473,-0.01132,0.00837*
1,1,0.02473,0.01132,0.00837*
1,1,0.02473,0.01132,-0.00837*
%
%ADD54ROUNDEDRECTD54*%
%ADD55R,0.05524X0.03950*%
%ADD56O,0.05524X0.03950*%
%ADD57O,0.10642X0.03556*%
%ADD58R,0.04147X0.04737*%
G04:AMPARAMS|DCode=59|XSize=41.47mil|YSize=47.37mil|CornerRadius=12.37mil|HoleSize=0mil|Usage=FLASHONLY|Rotation=180.000|XOffset=0mil|YOffset=0mil|HoleType=Round|Shape=RoundedRectangle|*
%AMROUNDEDRECTD59*
21,1,0.04147,0.02264,0,0,180.0*
21,1,0.01673,0.04737,0,0,180.0*
1,1,0.02473,-0.00837,0.01132*
1,1,0.02473,0.00837,0.01132*
1,1,0.02473,0.00837,-0.01132*
1,1,0.02473,-0.00837,-0.01132*
%
%ADD59ROUNDEDRECTD59*%
%ADD60R,0.04934X0.05918*%
%ADD61R,0.14579X0.05918*%
%ADD62R,0.04540X0.04343*%
%ADD63R,0.04540X0.04343*%
%ADD64R,0.27178X0.27178*%
%ADD65R,0.07099X0.12611*%
%ADD66R,0.05918X0.04934*%
%ADD67R,0.08083X0.12611*%
%ADD68R,0.05131X0.07493*%
%ADD69R,0.06312X0.04737*%
G04:AMPARAMS|DCode=70|XSize=63.12mil|YSize=47.37mil|CornerRadius=13.84mil|HoleSize=0mil|Usage=FLASHONLY|Rotation=0.000|XOffset=0mil|YOffset=0mil|HoleType=Round|Shape=RoundedRectangle|*
%AMROUNDEDRECTD70*
21,1,0.06312,0.01969,0,0,0.0*
21,1,0.03543,0.04737,0,0,0.0*
1,1,0.02769,0.01772,-0.00984*
1,1,0.02769,-0.01772,-0.00984*
1,1,0.02769,-0.01772,0.00984*
1,1,0.02769,0.01772,0.00984*
%
%ADD70ROUNDEDRECTD70*%
%ADD71R,0.07493X0.05131*%
G04:AMPARAMS|DCode=72|XSize=68mil|YSize=68mil|CornerRadius=19mil|HoleSize=0mil|Usage=FLASHONLY|Rotation=180.000|XOffset=0mil|YOffset=0mil|HoleType=Round|Shape=RoundedRectangle|*
%AMROUNDEDRECTD72*
21,1,0.06800,0.03000,0,0,180.0*
21,1,0.03000,0.06800,0,0,180.0*
1,1,0.03800,-0.01500,0.01500*
1,1,0.03800,0.01500,0.01500*
1,1,0.03800,0.01500,-0.01500*
1,1,0.03800,-0.01500,-0.01500*
%
%ADD72ROUNDEDRECTD72*%
%ADD73R,0.06800X0.06800*%
%ADD74R,0.04737X0.08674*%
%ADD75R,0.04343X0.04540*%
%ADD76R,0.04343X0.04540*%
%ADD77R,0.12611X0.08083*%
%ADD78C,0.06800*%
%ADD79C,0.36233*%
%ADD80C,0.22453*%
%ADD81C,0.08674*%
%ADD82C,0.05131*%
%ADD83C,0.13398*%
%ADD84C,0.04737*%
%ADD85C,0.04343*%
D52*
X177264Y183071D02*
D03*
D53*
X43517Y62964D02*
D03*
X57283Y49213D02*
D03*
D54*
X57296Y62964D02*
D03*
X43504Y49213D02*
D03*
D55*
X132205Y68500D02*
D03*
Y73500D02*
D03*
Y78500D02*
D03*
Y83500D02*
D03*
Y88500D02*
D03*
Y93500D02*
D03*
Y98500D02*
D03*
Y103500D02*
D03*
X107795Y68500D02*
D03*
Y73500D02*
D03*
Y78500D02*
D03*
Y83500D02*
D03*
Y88500D02*
D03*
Y93500D02*
D03*
Y98500D02*
D03*
X164205Y120020D02*
D03*
Y125020D02*
D03*
Y130020D02*
D03*
Y135020D02*
D03*
Y140020D02*
D03*
Y145020D02*
D03*
Y150020D02*
D03*
Y155020D02*
D03*
X139795Y120020D02*
D03*
Y125020D02*
D03*
Y130020D02*
D03*
Y135020D02*
D03*
Y140020D02*
D03*
Y145020D02*
D03*
Y150020D02*
D03*
X202205Y68500D02*
D03*
Y73500D02*
D03*
Y78500D02*
D03*
Y83500D02*
D03*
Y88500D02*
D03*
Y93500D02*
D03*
Y98500D02*
D03*
Y103500D02*
D03*
X177795Y68500D02*
D03*
Y73500D02*
D03*
Y78500D02*
D03*
Y83500D02*
D03*
Y88500D02*
D03*
Y93500D02*
D03*
Y98500D02*
D03*
D56*
X107795Y103500D02*
D03*
X139795Y155020D02*
D03*
X177795Y103500D02*
D03*
D57*
X109646Y138000D02*
D03*
Y143000D02*
D03*
Y148000D02*
D03*
Y153000D02*
D03*
X90354Y138000D02*
D03*
Y143000D02*
D03*
Y148000D02*
D03*
Y153000D02*
D03*
D58*
X227658Y79626D02*
D03*
D59*
Y65847D02*
D03*
D60*
X169193Y110827D02*
D03*
X163484D02*
D03*
X169193Y96949D02*
D03*
X163484D02*
D03*
X106146Y162000D02*
D03*
X111854D02*
D03*
X106146Y128500D02*
D03*
X111854D02*
D03*
X163484Y104035D02*
D03*
X169193D02*
D03*
X126476Y112106D02*
D03*
X132185D02*
D03*
X215551Y103347D02*
D03*
X209842D02*
D03*
D61*
X126181Y39429D02*
D03*
Y19429D02*
D03*
X150591Y29429D02*
D03*
D62*
X230118Y93307D02*
D03*
X239370Y89567D02*
D03*
X205299Y136205D02*
D03*
X196047Y139945D02*
D03*
D63*
X239370Y97047D02*
D03*
X196047Y132465D02*
D03*
D64*
X223524Y174606D02*
D03*
D65*
X214469Y147638D02*
D03*
X232579D02*
D03*
D66*
X172933Y148917D02*
D03*
Y154626D02*
D03*
X238650Y12874D02*
D03*
Y18583D02*
D03*
X159205Y76764D02*
D03*
Y71055D02*
D03*
D67*
X80701Y75410D02*
D03*
Y90764D02*
D03*
D68*
X72933Y34842D02*
D03*
X61910D02*
D03*
X42913D02*
D03*
X53937D02*
D03*
X238878Y45177D02*
D03*
X227854D02*
D03*
Y56299D02*
D03*
X238878D02*
D03*
X187205Y139961D02*
D03*
X176181D02*
D03*
D69*
X108858Y32579D02*
D03*
X108760Y19783D02*
D03*
D70*
X108858Y39862D02*
D03*
X108760Y12500D02*
D03*
D71*
X228650Y24587D02*
D03*
Y13563D02*
D03*
X142709Y83417D02*
D03*
Y94441D02*
D03*
X217189Y93256D02*
D03*
Y82232D02*
D03*
X215256Y119095D02*
D03*
Y130118D02*
D03*
X225295Y119095D02*
D03*
Y130118D02*
D03*
X235531D02*
D03*
Y119095D02*
D03*
D72*
X188858Y10784D02*
D03*
D73*
Y46610D02*
D03*
X206575D02*
D03*
Y10784D02*
D03*
D74*
X137795Y181102D02*
D03*
D75*
X199902Y160827D02*
D03*
X196161Y151575D02*
D03*
D76*
X203642Y151575D02*
D03*
D77*
X190847Y122047D02*
D03*
X175492D02*
D03*
D78*
X167421Y28642D02*
D03*
Y18642D02*
D03*
Y38642D02*
D03*
X97638Y28642D02*
D03*
Y38642D02*
D03*
Y18642D02*
D03*
D79*
X287402Y70866D02*
D03*
X286417Y119390D02*
D03*
D80*
X15748Y15748D02*
D03*
X299213D02*
D03*
Y181102D02*
D03*
X15748D02*
D03*
X47244D02*
D03*
Y15748D02*
D03*
X267717Y181102D02*
D03*
Y15748D02*
D03*
D81*
X14961Y61201D02*
D03*
Y51201D02*
D03*
D82*
X24961Y61201D02*
D03*
Y51201D02*
D03*
D83*
X51083Y98425D02*
D03*
X39272Y79921D02*
D03*
X27461Y98425D02*
D03*
D84*
X9744D02*
D03*
D85*
X182283Y47539D02*
D03*
X208858Y88090D02*
D03*
X209252Y57284D02*
D03*
X99803Y64244D02*
D03*
X79783Y181102D02*
D03*
X79878Y142584D02*
D03*
X89173Y131299D02*
D03*
X99888Y103234D02*
D03*
Y148000D02*
D03*
X80807Y49213D02*
D03*
X138681Y112205D02*
D03*
X142709Y100598D02*
D03*
X114075Y61122D02*
D03*
X138878Y47835D02*
D03*
X138583Y73425D02*
D03*
X195890Y73500D02*
D03*
X169095Y90551D02*
D03*
X35433Y49213D02*
D03*
X14961Y36713D02*
D03*
X27362Y125886D02*
D03*
X209646Y112303D02*
D03*
X80701Y63878D02*
D03*
X159055Y64075D02*
D03*
X114075Y82874D02*
D03*
X125787Y88484D02*
D03*
X121063Y147539D02*
D03*
X181496Y154921D02*
D03*
X119685Y162205D02*
D03*
X240453Y70866D02*
D03*
X121555Y76968D02*
D03*
X125787Y47441D02*
D03*
X63189Y62992D02*
D03*
X149902Y36024D02*
D03*
X119488Y93504D02*
D03*
Y137598D02*
D03*
X155905Y145079D02*
D03*
X155709Y180905D02*
D03*
X72933Y27362D02*
D03*
X61614Y26969D02*
D03*
X217126Y75394D02*
D03*
X196161Y10630D02*
D03*
X73130Y12500D02*
D03*
X48327Y42126D02*
D03*
X252067Y157776D02*
D03*
X199902Y168701D02*
D03*
X203740Y123819D02*
D03*
M02*
