G04 Layer_Color=32768*
%FSLAX25Y25*%
%MOIN*%
G70*
G01*
G75*
%ADD36C,0.01000*%
%ADD48C,0.00394*%
%ADD87C,0.00197*%
D36*
X-6004Y72047D02*
X57677D01*
X-6004D02*
Y122244D01*
X59350D01*
Y72047D02*
Y122244D01*
X57677Y72047D02*
X59350D01*
D48*
X50406Y60996D02*
Y64933D01*
X48438Y62964D02*
X52375D01*
X120000Y84031D02*
Y87968D01*
X118032Y86000D02*
X121968D01*
X104000Y63362D02*
X136000D01*
X104000Y108638D02*
X136000D01*
Y63362D02*
Y108638D01*
X104000Y63362D02*
Y108638D01*
X100000Y143532D02*
Y147468D01*
X98032Y145500D02*
X101969D01*
X83465Y133689D02*
X116535D01*
X83465Y157311D02*
X116535D01*
Y133689D02*
Y157311D01*
X83465Y133689D02*
Y157311D01*
X225689Y72736D02*
X229626D01*
X227658Y70768D02*
Y74705D01*
X166339Y108858D02*
Y112795D01*
X164370Y110827D02*
X168307D01*
X166339Y94980D02*
Y98917D01*
X164370Y96949D02*
X168307D01*
X172933Y149803D02*
Y153740D01*
X170965Y151772D02*
X174902D01*
X107032Y162000D02*
X110968D01*
X109000Y160031D02*
Y163969D01*
X80701Y81118D02*
Y85055D01*
X78732Y83087D02*
X82669D01*
X65453Y34842D02*
X69390D01*
X67421Y32874D02*
Y36811D01*
X46457Y34842D02*
X50394D01*
X48425Y32874D02*
Y36811D01*
X106890Y36220D02*
X110827D01*
X108858Y34252D02*
Y38189D01*
X106791Y16142D02*
X110728D01*
X108760Y14173D02*
Y18110D01*
X228650Y17106D02*
Y21043D01*
X226681Y19075D02*
X230618D01*
X238650Y13760D02*
Y17697D01*
X236681Y15728D02*
X240618D01*
X231398Y45177D02*
X235335D01*
X233366Y43209D02*
Y47146D01*
X231398Y56299D02*
X235335D01*
X233366Y54331D02*
Y58268D01*
X107032Y128500D02*
X110968D01*
X109000Y126532D02*
Y130468D01*
X179724Y139961D02*
X183661D01*
X181693Y137992D02*
Y141929D01*
X164370Y104035D02*
X168307D01*
X166339Y102067D02*
Y106004D01*
X142709Y86961D02*
Y90898D01*
X140740Y88929D02*
X144677D01*
X159205Y71941D02*
Y75878D01*
X157236Y73909D02*
X161173D01*
X127362Y112106D02*
X131299D01*
X129331Y110138D02*
Y114075D01*
X210728Y103347D02*
X214665D01*
X212697Y101378D02*
Y105315D01*
X152000Y135551D02*
Y139488D01*
X150031Y137520D02*
X153969D01*
X136000Y114882D02*
X168000D01*
X136000Y160158D02*
X168000D01*
Y114882D02*
Y160158D01*
X136000Y114882D02*
Y160158D01*
X48425Y49213D02*
X52362D01*
X50394Y47244D02*
Y51181D01*
X217189Y85776D02*
Y89713D01*
X215221Y87744D02*
X219158D01*
X213287Y124606D02*
X217224D01*
X215256Y122638D02*
Y126575D01*
X223327Y124606D02*
X227264D01*
X225295Y122638D02*
Y126575D01*
X233563Y124606D02*
X237500D01*
X235531Y122638D02*
Y126575D01*
X183169Y120079D02*
Y124016D01*
X181201Y122047D02*
X185138D01*
X190000Y84031D02*
Y87968D01*
X188031Y86000D02*
X191969D01*
X174000Y63362D02*
X206000D01*
X174000Y108638D02*
X206000D01*
Y63362D02*
Y108638D01*
X174000Y63362D02*
Y108638D01*
D87*
X40761Y67098D02*
X60052D01*
X40761Y58830D02*
X60052D01*
X40761D02*
Y67098D01*
X60052Y58830D02*
Y67098D01*
X231791Y63090D02*
Y82382D01*
X223524Y63090D02*
Y82382D01*
X231791D01*
X223524Y63090D02*
X231791D01*
X161024Y107677D02*
X171653D01*
X161024Y113976D02*
X171653D01*
Y107677D02*
Y113976D01*
X161024Y107677D02*
Y113976D01*
Y93799D02*
X171653D01*
X161024Y100098D02*
X171653D01*
Y93799D02*
Y100098D01*
X161024Y93799D02*
Y100098D01*
X169783Y146457D02*
X176083D01*
X169783Y157087D02*
X176083D01*
X169783Y146457D02*
Y157087D01*
X176083Y146457D02*
Y157087D01*
X103685Y158850D02*
Y165150D01*
X114315Y158850D02*
Y165150D01*
X103685D02*
X114315D01*
X103685Y158850D02*
X114315D01*
X67905Y65567D02*
X93496D01*
X67905Y100606D02*
X93496D01*
X67905Y65567D02*
Y100606D01*
X93496Y65567D02*
Y100606D01*
X76083Y30512D02*
Y39173D01*
X58760Y30512D02*
Y39173D01*
Y30512D02*
X76083D01*
X58760Y39173D02*
X76083D01*
X39764Y30512D02*
Y39173D01*
X57087Y30512D02*
Y39173D01*
X39764D02*
X57087D01*
X39764Y30512D02*
X57087D01*
X105118Y29528D02*
Y42913D01*
X112598Y29528D02*
Y42913D01*
X105118Y29528D02*
X112598D01*
X105118Y42913D02*
X112598D01*
X112500Y9449D02*
Y22835D01*
X105020Y9449D02*
Y22835D01*
X112500D01*
X105020Y9449D02*
X112500D01*
X224319Y27736D02*
X232980D01*
X224319Y10413D02*
X232980D01*
Y27736D01*
X224319Y10413D02*
Y27736D01*
X235500Y10413D02*
X241799D01*
X235500Y21043D02*
X241799D01*
X235500Y10413D02*
Y21043D01*
X241799Y10413D02*
Y21043D01*
X242028Y40846D02*
Y49508D01*
X224705Y40846D02*
Y49508D01*
Y40846D02*
X242028D01*
X224705Y49508D02*
X242028D01*
X224705Y51968D02*
Y60630D01*
X242028Y51968D02*
Y60630D01*
X224705D02*
X242028D01*
X224705Y51968D02*
X242028D01*
X103685Y125350D02*
Y131650D01*
X114315Y125350D02*
Y131650D01*
X103685D02*
X114315D01*
X103685Y125350D02*
X114315D01*
X190354Y135630D02*
Y144291D01*
X173031Y135630D02*
Y144291D01*
Y135630D02*
X190354D01*
X173031Y144291D02*
X190354D01*
X161024Y100886D02*
Y107185D01*
X171653Y100886D02*
Y107185D01*
X161024D02*
X171653D01*
X161024Y100886D02*
X171653D01*
X138378Y80268D02*
X147039D01*
X138378Y97591D02*
X147039D01*
X138378Y80268D02*
Y97591D01*
X147039Y80268D02*
Y97591D01*
X156055Y79224D02*
X162354D01*
X156055Y68594D02*
X162354D01*
Y79224D01*
X156055Y68594D02*
Y79224D01*
X124016Y108957D02*
Y115256D01*
X134646Y108957D02*
Y115256D01*
X124016D02*
X134646D01*
X124016Y108957D02*
X134646D01*
X211496Y6197D02*
Y50697D01*
X183937Y6197D02*
Y50697D01*
Y6197D02*
X211496D01*
X183937Y50697D02*
X211496D01*
X218012Y100197D02*
Y106496D01*
X207382Y100197D02*
Y106496D01*
Y100197D02*
X218012D01*
X207382Y106496D02*
X218012D01*
X40748Y45079D02*
Y53347D01*
X60039Y45079D02*
Y53347D01*
X40748D02*
X60039D01*
X40748Y45079D02*
X60039D01*
X212859Y96406D02*
X221520D01*
X212859Y79083D02*
X221520D01*
Y96406D01*
X212859Y79083D02*
Y96406D01*
X210925Y115945D02*
Y133268D01*
X219587Y115945D02*
Y133268D01*
X210925Y115945D02*
X219587D01*
X210925Y133268D02*
X219587D01*
X220965Y115945D02*
Y133268D01*
X229626Y115945D02*
Y133268D01*
X220965Y115945D02*
X229626D01*
X220965Y133268D02*
X229626D01*
X239862Y115945D02*
Y133268D01*
X231201Y115945D02*
Y133268D01*
X239862D01*
X231201Y115945D02*
X239862D01*
X165650Y109252D02*
X200689D01*
X165650Y134843D02*
X200689D01*
Y109252D02*
Y134843D01*
X165650Y109252D02*
Y134843D01*
M02*
