M48
;Layer_Color=9474304
;FILE_FORMAT=2:5
INCH,TZ
;TYPE=PLATED
T1F00S00C0.01968
T2F00S00C0.02953
T3F00S00C0.04331
T4F00S00C0.06299
T5F00S00C0.08661
T6F00S00C0.13780
;TYPE=NON_PLATED
T7F00S00C0.04331
T8F00S00C0.35433
%
T01
X99803Y64244
X114075Y61122
X125787Y47441
X138878Y47835
X149902Y36024
X159055Y64075
X138583Y73425
X195890Y73500
X209252Y57284
X182283Y47539
X196161Y10630
X240453Y70866
X80701Y63878
X80807Y49213
X72933Y27362
X61614Y26969
X73130Y12500
X48327Y42126
X35433Y49213
X14961Y36713
X63189Y62992
X89173Y131299
X79878Y142584
X79783Y181102
X27362Y125886
X99888Y148000
X121063Y147539
X119488Y137598
X119685Y162205
X155905Y145079
X181496Y154921
X199902Y168701
X203740Y123819
X209646Y112303
X208858Y88090
X217126Y75394
X169095Y90551
X142709Y100598
X138681Y112205
X125787Y88484
X119488Y93504
X114075Y82874
X121555Y76968
X99888Y103234
X155709Y180905
X252067Y157776
T02
X97638Y18642
Y28642
Y38642
X167421
Y28642
Y18642
T03
X14961Y51201
Y61201
T04
X39272Y79921
X51083Y98425
X27461
T05
X9744Y98425
T06
X267717Y15748
X299213
X47244
X15748
Y181102
X47244
X267717
X299213
T07
X24961Y51201
Y61201
T08
X287402Y70866
X286417Y119390
M30
